<svg width="73" height="18" viewBox="0 0 73 18" fill="none" xmlns="http://www.w3.org/2000/svg">
<path d="M1.278 4.55H5.544C5.832 4.55 6.072 4.646 6.264 4.838C6.456 5.03 6.552 5.27 6.552 5.558C6.552 5.834 6.456 6.068 6.264 6.26C6.072 6.44 5.832 6.53 5.544 6.53H1.278C0.99 6.53 0.75 6.434 0.558 6.242C0.366 6.05 0.27 5.81 0.27 5.522C0.27 5.246 0.366 5.018 0.558 4.838C0.75 4.646 0.99 4.55 1.278 4.55ZM3.204 2.3C3.516 2.3 3.768 2.408 3.96 2.624C4.164 2.828 4.266 3.086 4.266 3.398V11.408C4.266 11.576 4.296 11.714 4.356 11.822C4.428 11.93 4.518 12.008 4.626 12.056C4.746 12.104 4.872 12.128 5.004 12.128C5.148 12.128 5.28 12.104 5.4 12.056C5.52 11.996 5.658 11.966 5.814 11.966C5.982 11.966 6.132 12.044 6.264 12.2C6.408 12.356 6.48 12.572 6.48 12.848C6.48 13.184 6.294 13.46 5.922 13.676C5.562 13.892 5.172 14 4.752 14C4.5 14 4.218 13.982 3.906 13.946C3.606 13.898 3.318 13.796 3.042 13.64C2.778 13.472 2.556 13.22 2.376 12.884C2.196 12.548 2.106 12.086 2.106 11.498V3.398C2.106 3.086 2.208 2.828 2.412 2.624C2.628 2.408 2.892 2.3 3.204 2.3ZM15.8792 4.19C16.1912 4.19 16.4492 4.292 16.6532 4.496C16.8572 4.7 16.9592 4.964 16.9592 5.288V12.902C16.9592 13.214 16.8572 13.478 16.6532 13.694C16.4492 13.898 16.1912 14 15.8792 14C15.5672 14 15.3092 13.898 15.1052 13.694C14.9012 13.478 14.7992 13.214 14.7992 12.902V12.02L15.1952 12.182C15.1952 12.338 15.1112 12.53 14.9432 12.758C14.7752 12.974 14.5472 13.19 14.2592 13.406C13.9712 13.622 13.6292 13.808 13.2332 13.964C12.8492 14.108 12.4292 14.18 11.9732 14.18C11.1452 14.18 10.3952 13.97 9.72323 13.55C9.05123 13.118 8.51723 12.53 8.12123 11.786C7.73723 11.03 7.54523 10.166 7.54523 9.194C7.54523 8.21 7.73723 7.346 8.12123 6.602C8.51723 5.846 9.04523 5.258 9.70523 4.838C10.3652 4.406 11.0972 4.19 11.9012 4.19C12.4172 4.19 12.8912 4.268 13.3232 4.424C13.7552 4.58 14.1272 4.778 14.4392 5.018C14.7632 5.258 15.0092 5.504 15.1772 5.756C15.3572 5.996 15.4472 6.2 15.4472 6.368L14.7992 6.602V5.288C14.7992 4.976 14.9012 4.718 15.1052 4.514C15.3092 4.298 15.5672 4.19 15.8792 4.19ZM12.2432 12.2C12.7712 12.2 13.2332 12.068 13.6292 11.804C14.0252 11.54 14.3312 11.18 14.5472 10.724C14.7752 10.268 14.8892 9.758 14.8892 9.194C14.8892 8.618 14.7752 8.102 14.5472 7.646C14.3312 7.19 14.0252 6.83 13.6292 6.566C13.2332 6.302 12.7712 6.17 12.2432 6.17C11.7272 6.17 11.2712 6.302 10.8752 6.566C10.4792 6.83 10.1672 7.19 9.93923 7.646C9.72323 8.102 9.61523 8.618 9.61523 9.194C9.61523 9.758 9.72323 10.268 9.93923 10.724C10.1672 11.18 10.4792 11.54 10.8752 11.804C11.2712 12.068 11.7272 12.2 12.2432 12.2ZM18.2 12.506C18.08 12.338 18.026 12.122 18.038 11.858C18.05 11.594 18.206 11.366 18.506 11.174C18.698 11.054 18.902 11.006 19.118 11.03C19.334 11.042 19.544 11.15 19.748 11.354C20.096 11.702 20.462 11.972 20.846 12.164C21.23 12.356 21.71 12.452 22.286 12.452C22.466 12.44 22.664 12.416 22.88 12.38C23.096 12.332 23.282 12.236 23.438 12.092C23.606 11.936 23.69 11.702 23.69 11.39C23.69 11.126 23.6 10.916 23.42 10.76C23.24 10.604 23 10.472 22.7 10.364C22.412 10.256 22.088 10.154 21.728 10.058C21.356 9.95 20.972 9.83 20.576 9.698C20.192 9.566 19.838 9.398 19.514 9.194C19.19 8.978 18.926 8.696 18.722 8.348C18.518 8 18.416 7.562 18.416 7.034C18.416 6.434 18.584 5.924 18.92 5.504C19.256 5.084 19.688 4.76 20.216 4.532C20.756 4.304 21.32 4.19 21.908 4.19C22.28 4.19 22.67 4.238 23.078 4.334C23.486 4.418 23.876 4.562 24.248 4.766C24.62 4.958 24.932 5.216 25.184 5.54C25.316 5.72 25.394 5.936 25.418 6.188C25.442 6.44 25.328 6.668 25.076 6.872C24.896 7.016 24.686 7.082 24.446 7.07C24.206 7.046 24.008 6.962 23.852 6.818C23.648 6.554 23.372 6.344 23.024 6.188C22.688 6.032 22.298 5.954 21.854 5.954C21.674 5.954 21.476 5.978 21.26 6.026C21.056 6.062 20.876 6.152 20.72 6.296C20.564 6.428 20.486 6.644 20.486 6.944C20.486 7.22 20.576 7.442 20.756 7.61C20.936 7.766 21.176 7.898 21.476 8.006C21.788 8.102 22.118 8.198 22.466 8.294C22.826 8.39 23.192 8.504 23.564 8.636C23.936 8.768 24.278 8.942 24.59 9.158C24.902 9.374 25.154 9.656 25.346 10.004C25.538 10.34 25.634 10.772 25.634 11.3C25.634 11.912 25.454 12.434 25.094 12.866C24.734 13.298 24.284 13.628 23.744 13.856C23.204 14.072 22.652 14.18 22.088 14.18C21.38 14.18 20.672 14.06 19.964 13.82C19.256 13.568 18.668 13.13 18.2 12.506ZM28.1616 14C27.8496 14 27.5916 13.898 27.3876 13.694C27.1836 13.478 27.0816 13.214 27.0816 12.902V1.778C27.0816 1.466 27.1836 1.208 27.3876 1.004C27.5916 0.788 27.8496 0.68 28.1616 0.68C28.4736 0.68 28.7316 0.788 28.9356 1.004C29.1396 1.208 29.2416 1.466 29.2416 1.778V12.902C29.2416 13.214 29.1396 13.478 28.9356 13.694C28.7316 13.898 28.4736 14 28.1616 14ZM33.8856 4.37C34.1616 4.37 34.4016 4.484 34.6056 4.712C34.8096 4.94 34.9116 5.162 34.9116 5.378C34.9116 5.666 34.7676 5.936 34.4796 6.188L29.0616 11.174L28.9716 8.69L33.0936 4.712C33.3216 4.484 33.5856 4.37 33.8856 4.37ZM34.1556 13.982C33.8436 13.982 33.5796 13.862 33.3636 13.622L30.0336 10.094L31.6716 8.582L34.9116 12.11C35.1396 12.35 35.2536 12.62 35.2536 12.92C35.2536 13.232 35.1276 13.49 34.8756 13.694C34.6356 13.886 34.3956 13.982 34.1556 13.982ZM45.5473 9.194C45.5473 10.178 45.3253 11.048 44.8813 11.804C44.4493 12.548 43.8613 13.13 43.1173 13.55C42.3853 13.97 41.5633 14.18 40.6513 14.18C39.7393 14.18 38.9113 13.97 38.1673 13.55C37.4353 13.13 36.8473 12.548 36.4033 11.804C35.9713 11.048 35.7553 10.178 35.7553 9.194C35.7553 8.21 35.9713 7.346 36.4033 6.602C36.8473 5.846 37.4353 5.258 38.1673 4.838C38.9113 4.406 39.7393 4.19 40.6513 4.19C41.5633 4.19 42.3853 4.406 43.1173 4.838C43.8613 5.258 44.4493 5.846 44.8813 6.602C45.3253 7.346 45.5473 8.21 45.5473 9.194ZM43.3873 9.194C43.3873 8.582 43.2613 8.054 43.0093 7.61C42.7693 7.154 42.4393 6.8 42.0193 6.548C41.6113 6.296 41.1553 6.17 40.6513 6.17C40.1473 6.17 39.6853 6.296 39.2653 6.548C38.8573 6.8 38.5273 7.154 38.2753 7.61C38.0353 8.054 37.9153 8.582 37.9153 9.194C37.9153 9.794 38.0353 10.322 38.2753 10.778C38.5273 11.222 38.8573 11.57 39.2653 11.822C39.6853 12.074 40.1473 12.2 40.6513 12.2C41.1553 12.2 41.6113 12.074 42.0193 11.822C42.4393 11.57 42.7693 11.222 43.0093 10.778C43.2613 10.322 43.3873 9.794 43.3873 9.194ZM47.9777 14C47.6657 14 47.4077 13.898 47.2037 13.694C46.9997 13.478 46.8977 13.214 46.8977 12.902V5.468C46.8977 5.156 46.9997 4.898 47.2037 4.694C47.4077 4.478 47.6657 4.37 47.9777 4.37C48.2897 4.37 48.5477 4.478 48.7517 4.694C48.9557 4.898 49.0577 5.156 49.0577 5.468V7.16L48.9317 5.954C49.0637 5.666 49.2317 5.414 49.4357 5.198C49.6517 4.97 49.8917 4.784 50.1557 4.64C50.4197 4.484 50.7017 4.37 51.0017 4.298C51.3017 4.226 51.6017 4.19 51.9017 4.19C52.2617 4.19 52.5617 4.292 52.8017 4.496C53.0537 4.7 53.1797 4.94 53.1797 5.216C53.1797 5.612 53.0777 5.9 52.8737 6.08C52.6697 6.248 52.4477 6.332 52.2077 6.332C51.9797 6.332 51.7697 6.29 51.5777 6.206C51.3977 6.122 51.1877 6.08 50.9477 6.08C50.7317 6.08 50.5097 6.134 50.2817 6.242C50.0657 6.338 49.8617 6.494 49.6697 6.71C49.4897 6.926 49.3397 7.196 49.2197 7.52C49.1117 7.832 49.0577 8.204 49.0577 8.636V12.902C49.0577 13.214 48.9557 13.478 48.7517 13.694C48.5477 13.898 48.2897 14 47.9777 14ZM56.1964 12.902C56.1964 13.214 56.0944 13.478 55.8904 13.694C55.6864 13.898 55.4284 14 55.1164 14C54.8044 14 54.5464 13.898 54.3424 13.694C54.1384 13.478 54.0364 13.214 54.0364 12.902V5.468C54.0364 5.156 54.1384 4.898 54.3424 4.694C54.5464 4.478 54.8044 4.37 55.1164 4.37C55.4284 4.37 55.6864 4.478 55.8904 4.694C56.0944 4.898 56.1964 5.156 56.1964 5.468V12.902ZM55.0984 3.2C54.6904 3.2 54.4024 3.134 54.2344 3.002C54.0664 2.87 53.9824 2.636 53.9824 2.3V1.958C53.9824 1.61 54.0724 1.376 54.2524 1.256C54.4444 1.124 54.7324 1.058 55.1164 1.058C55.5364 1.058 55.8304 1.124 55.9984 1.256C56.1664 1.388 56.2504 1.622 56.2504 1.958V2.3C56.2504 2.648 56.1604 2.888 55.9804 3.02C55.8004 3.14 55.5064 3.2 55.0984 3.2ZM57.9843 4.55H62.2503C62.5383 4.55 62.7783 4.646 62.9703 4.838C63.1623 5.03 63.2583 5.27 63.2583 5.558C63.2583 5.834 63.1623 6.068 62.9703 6.26C62.7783 6.44 62.5383 6.53 62.2503 6.53H57.9843C57.6963 6.53 57.4563 6.434 57.2643 6.242C57.0723 6.05 56.9763 5.81 56.9763 5.522C56.9763 5.246 57.0723 5.018 57.2643 4.838C57.4563 4.646 57.6963 4.55 57.9843 4.55ZM59.9103 2.3C60.2223 2.3 60.4743 2.408 60.6663 2.624C60.8703 2.828 60.9723 3.086 60.9723 3.398V11.408C60.9723 11.576 61.0023 11.714 61.0623 11.822C61.1343 11.93 61.2243 12.008 61.3323 12.056C61.4523 12.104 61.5783 12.128 61.7103 12.128C61.8543 12.128 61.9863 12.104 62.1063 12.056C62.2263 11.996 62.3643 11.966 62.5203 11.966C62.6883 11.966 62.8383 12.044 62.9703 12.2C63.1143 12.356 63.1863 12.572 63.1863 12.848C63.1863 13.184 63.0003 13.46 62.6283 13.676C62.2683 13.892 61.8783 14 61.4583 14C61.2063 14 60.9243 13.982 60.6123 13.946C60.3123 13.898 60.0243 13.796 59.7483 13.64C59.4843 13.472 59.2623 13.22 59.0823 12.884C58.9023 12.548 58.8123 12.086 58.8123 11.498V3.398C58.8123 3.086 58.9143 2.828 59.1183 2.624C59.3343 2.408 59.5983 2.3 59.9103 2.3ZM71.8476 4.37C72.1596 4.37 72.4176 4.478 72.6216 4.694C72.8256 4.898 72.9276 5.156 72.9276 5.468V13.118C72.9276 14.222 72.7176 15.098 72.2976 15.746C71.8896 16.406 71.3376 16.88 70.6416 17.168C69.9456 17.456 69.1656 17.6 68.3016 17.6C67.9176 17.6 67.5096 17.57 67.0776 17.51C66.6456 17.45 66.2916 17.36 66.0156 17.24C65.6556 17.084 65.4036 16.886 65.2596 16.646C65.1276 16.418 65.1036 16.172 65.1876 15.908C65.2956 15.56 65.4696 15.32 65.7096 15.188C65.9496 15.068 66.2016 15.056 66.4656 15.152C66.6576 15.212 66.9096 15.302 67.2216 15.422C67.5336 15.554 67.8936 15.62 68.3016 15.62C68.8536 15.62 69.3096 15.542 69.6696 15.386C70.0416 15.242 70.3176 14.99 70.4976 14.63C70.6896 14.282 70.7856 13.802 70.7856 13.19V11.984L71.1636 12.416C70.9596 12.812 70.7016 13.142 70.3896 13.406C70.0896 13.658 69.7296 13.85 69.3096 13.982C68.8896 14.114 68.4096 14.18 67.8696 14.18C67.2336 14.18 66.6756 14.036 66.1956 13.748C65.7276 13.448 65.3616 13.04 65.0976 12.524C64.8336 11.996 64.7016 11.396 64.7016 10.724V5.468C64.7016 5.156 64.8036 4.898 65.0076 4.694C65.2116 4.478 65.4696 4.37 65.7816 4.37C66.0936 4.37 66.3516 4.478 66.5556 4.694C66.7596 4.898 66.8616 5.156 66.8616 5.468V10.076C66.8616 10.856 67.0296 11.408 67.3656 11.732C67.7136 12.044 68.1936 12.2 68.8056 12.2C69.2256 12.2 69.5796 12.122 69.8676 11.966C70.1556 11.798 70.3776 11.558 70.5336 11.246C70.6896 10.922 70.7676 10.532 70.7676 10.076V5.468C70.7676 5.156 70.8696 4.898 71.0736 4.694C71.2776 4.478 71.5356 4.37 71.8476 4.37Z" fill="#191919"/>
</svg>
